# xmcd
# 
# Track frame offsets:
#     150
#     19240
#     34115
#     44748
#     59243
#     77649
#     89869
#     103575
#     120964
#     139097
#     151070
#     162833
#     179593
#     189895
#     202803
#     219364
#     233573
# 
# Disc length: 3467
# 
# Revision: 1
# Processed by: cddbd v1.5.2PL0 Copyright (c) Steve Scherf et al.
# Submitted via: fre:ac v1.0.27
# 
DISCID=e30d8911
DTITLE=V/A - Delta Swamp Rock
DYEAR=0
DGENRE=Rock
TTITLE0=Billy Swan - Don't Be Cruel
TTITLE1=Bob Darin - Me And Mr. Hohner
TTITLE2=Hoyt Axton - California Women
TTITLE3=Townes Van Zandt - Hunger Child Blues
TTITLE4=Thomas Jefferson Kaye - Collection Box
TTITLE5=Willie Nelson - Shotgun Willie
TTITLE6=Jackie Deshannon - The Weight
TTITLE7=Dillard and Clark - Don't Let Me Down
TTITLE8=Bill Wilson - Pay Day Give Away
TTITLE9=Dolly Parton - Getting Happy
TTITLE10=Larry Williams and Johnny Watson With The Kaleidoscope - Nobody
TTITLE11=Jim Ford - Rising Sign
TTITLE12=JJ Cale - Cajun Moon
TTITLE13=Donnie Fritts - Sumpin' Funky Going On
TTITLE14=Kenny Rogers and The First Edition - Tulsa Turnaround
TTITLE15=Great Speckled Bird - Long Long Time To Get Old
TTITLE16=Willis Alan Ramsey - Northeast Texas Women
EXTD=
EXTT0=
EXTT1=
EXTT2=
EXTT3=
EXTT4=
EXTT5=
EXTT6=
EXTT7=
EXTT8=
EXTT9=
EXTT10=
EXTT11=
EXTT12=
EXTT13=
EXTT14=
EXTT15=
EXTT16=
PLAYORDER=
